<?xml version="1.0" standalone="no"?>
<!DOCTYPE svg PUBLIC "-//W3C//DTD SVG 20010904//EN"
 "http://www.w3.org/TR/2001/REC-SVG-20010904/DTD/svg10.dtd">
<svg version="1.0" xmlns="http://www.w3.org/2000/svg"
 width="1000.000000pt" height="1000.000000pt" viewBox="0 0 1000.000000 1000.000000"
 preserveAspectRatio="xMidYMid meet">
<metadata>
Created by potrace 1.11, written by Peter Selinger 2001-2013
</metadata>
<g transform="translate(0.000000,1000.000000) scale(0.100000,-0.100000)"
fill="#000000" stroke="none">
<path d="M4690 9993 c-53 -4 -248 -23 -305 -29 -188 -20 -513 -85 -720 -144
-77 -22 -147 -42 -155 -44 -47 -12 -242 -82 -350 -124 -277 -110 -535 -240
-794 -400 -399 -245 -813 -597 -1131 -962 -588 -672 -980 -1476 -1149 -2355
-8 -44 -18 -98 -21 -120 -3 -22 -9 -65 -15 -95 -5 -30 -12 -84 -16 -120 -3
-36 -8 -73 -10 -84 -25 -134 -25 -894 0 -1032 2 -10 7 -50 11 -89 4 -38 8 -77
10 -85 4 -20 14 -86 21 -135 3 -22 21 -116 40 -208 182 -874 609 -1700 1219
-2357 432 -464 915 -826 1469 -1099 474 -233 1025 -403 1516 -465 25 -3 65 -8
90 -11 206 -26 342 -32 650 -30 184 2 346 5 360 8 14 3 57 8 97 12 39 3 82 8
95 10 13 2 48 6 78 10 30 4 64 8 75 10 11 2 38 6 61 10 195 28 540 112 729
177 212 73 242 83 295 106 14 6 70 29 125 52 302 126 649 322 945 533 102 73
308 235 370 291 135 123 173 159 260 247 100 101 202 208 235 249 11 14 47 57
80 96 407 484 733 1086 925 1709 67 218 142 546 165 725 4 30 9 64 11 75 2 11
7 47 10 80 4 33 8 62 9 65 18 31 27 714 12 905 -8 109 -24 268 -31 300 -2 11
-7 43 -10 70 -4 28 -8 61 -11 75 -3 14 -7 39 -10 55 -46 281 -158 675 -275
971 -420 1052 -1196 1943 -2185 2506 -529 301 -1137 510 -1740 597 -268 38
-421 48 -735 47 -146 0 -281 -1 -300 -3z"/>
</g>
</svg>
